<svg xmlns="http://www.w3.org/2000/svg" viewBox="0 0 900 900">
  <defs>
    <filter id="s" x="-20%" y="-20%" width="140%" height="140%"><feDropShadow dx="0" dy="9" stdDeviation="8" flood-color="#000" flood-opacity=".28"/></filter>
    <radialGradient id="pink" cx="35%" cy="25%" r="75%"><stop offset="0" stop-color="#ffd0ef"/><stop offset=".55" stop-color="#e15ca9"/><stop offset="1" stop-color="#79304f"/></radialGradient>
    <radialGradient id="yellow" cx="35%" cy="25%" r="75%"><stop offset="0" stop-color="#fff6ad"/><stop offset=".58" stop-color="#e8c84f"/><stop offset="1" stop-color="#8c6b16"/></radialGradient>
    <radialGradient id="blue" cx="35%" cy="25%" r="75%"><stop offset="0" stop-color="#d3fbff"/><stop offset=".58" stop-color="#76c7d3"/><stop offset="1" stop-color="#2e6b76"/></radialGradient>
  </defs>
  <path filter="url(#s)" fill="url(#pink)" d="M255 250C198 186 90 230 90 326C90 424 255 514 255 514C255 514 420 424 420 326C420 230 312 186 255 250Z"/>
  <path filter="url(#s)" fill="url(#yellow)" d="M654 120L705 224L820 240L737 321L757 435L654 381L551 435L571 321L488 240L603 224Z"/>
  <path filter="url(#s)" fill="url(#blue)" d="M454 546C410 496 312 508 292 584L270 676C248 762 320 820 454 820C588 820 660 762 638 676L616 584C596 508 498 496 454 546Z"/>
  <path fill="url(#blue)" d="M332 572L286 488L390 532Z"/>
  <path fill="url(#blue)" d="M576 572L622 488L518 532Z"/>
  <circle cx="406" cy="650" r="18" fill="#173442"/>
  <circle cx="502" cy="650" r="18" fill="#173442"/>
  <path d="M432 704C454 727 477 727 499 704" fill="none" stroke="#173442" stroke-width="14" stroke-linecap="round"/>
  <ellipse cx="332" cy="296" rx="32" ry="18" fill="#fff" opacity=".45" transform="rotate(-25 332 296)"/>
  <ellipse cx="686" cy="215" rx="24" ry="12" fill="#fff" opacity=".42" transform="rotate(-24 686 215)"/>
</svg>