<svg xmlns="http://www.w3.org/2000/svg" viewBox="0 0 1920 1080" width="1920" height="1080" preserveAspectRatio="xMidYMid slice">
  <defs>
    <radialGradient id="egg" cx="42%" cy="31%" r="72%">
      <stop offset="0%" stop-color="#fff2ca"/>
      <stop offset="30%" stop-color="#edd8a8"/>
      <stop offset="62%" stop-color="#d0b47c"/>
      <stop offset="100%" stop-color="#92744c"/>
    </radialGradient>
    <radialGradient id="softLight" cx="40%" cy="28%" r="62%">
      <stop offset="0%" stop-color="#ffffff" stop-opacity="0.32"/>
      <stop offset="44%" stop-color="#ffffff" stop-opacity="0.10"/>
      <stop offset="100%" stop-color="#ffffff" stop-opacity="0"/>
    </radialGradient>
    <radialGradient id="edgeShade" cx="72%" cy="62%" r="65%">
      <stop offset="0%" stop-color="#000000" stop-opacity="0"/>
      <stop offset="72%" stop-color="#000000" stop-opacity="0.05"/>
      <stop offset="100%" stop-color="#000000" stop-opacity="0.24"/>
    </radialGradient>
    <filter id="drop" x="-30%" y="-30%" width="160%" height="160%">
      <feDropShadow dx="0" dy="38" stdDeviation="32" flood-color="#000" flood-opacity="0.45"/>
    </filter>
    <filter id="grain" x="0" y="0" width="100%" height="100%">
      <feTurbulence type="fractalNoise" baseFrequency="0.018" numOctaves="2" seed="21" result="n"/>
      <feColorMatrix in="n" type="matrix" values="0 0 0 0 .95 0 0 0 0 .78 0 0 0 0 .45 0 0 0 .055 0" result="cn"/>
      <feBlend in="SourceGraphic" in2="cn" mode="soft-light"/>
    </filter>
  </defs>
  <rect width="1920" height="1080" fill="#07090f"/>
  <ellipse cx="960" cy="930" rx="360" ry="44" fill="#000" opacity="0.30"/>
  <g filter="url(#drop)">
    <path d="M954 112 C1114 112 1235 213 1294 360 C1355 513 1334 704 1227 824 C1121 944 942 973 793 899 C647 827 572 676 592 510 C612 343 704 194 836 133 C872 119 913 112 954 112 Z" fill="url(#egg)" filter="url(#grain)"/>
    <path d="M954 112 C1114 112 1235 213 1294 360 C1355 513 1334 704 1227 824 C1121 944 942 973 793 899 C647 827 572 676 592 510 C612 343 704 194 836 133 C872 119 913 112 954 112 Z" fill="url(#softLight)"/>
    <path d="M954 112 C1114 112 1235 213 1294 360 C1355 513 1334 704 1227 824 C1121 944 942 973 793 899 C647 827 572 676 592 510 C612 343 704 194 836 133 C872 119 913 112 954 112 Z" fill="url(#edgeShade)"/>
  </g>
</svg>
